# xmcd
#
# Track frame offsets:
#	150
#	18346
#	33917
#	46720
#	66805
#	84408
#	100046
#	119098
#	136410
#	154683
#	168718
#	189093
#
# Disc length: 2739 seconds
# Revision: 0
# Processed by: cddbd v1.5.2PL0 Copyright (c) Steve Scherf et al.
# Submitted via: dBpowerAMP V12.0
#
DISCID=910ab10c
DTITLE=Wood Belly - Solid Ground
DYEAR=2018
DGENRE=Bluegrass
TTITLE0=Solid Ground
TTITLE1=Georgia Wind
TTITLE2=Elkhorn Creek
TTITLE3=Jamestown
TTITLE4=Wings
TTITLE5=Through and Through
TTITLE6=Rough and Tumblin'
TTITLE7=Skinny Dip
TTITLE8=Colorado Hipster Beard
TTITLE9=Blue Label
TTITLE10=The Eleventh Hour
TTITLE11=Keep On Lovin' Me
EXTD=
EXTT0=
EXTT1=
EXTT2=
EXTT3=
EXTT4=
EXTT5=
EXTT6=
EXTT7=
EXTT8=
EXTT9=
EXTT10=
EXTT11=
PLAYORDER=
